<svg width="46" height="56" viewBox="0 0 46 56" fill="none" xmlns="http://www.w3.org/2000/svg">
<g clip-path="url(#clip0_667_234)">
<path d="M32.5219 9.04978L11.0483 46.2431L21.2182 52.1147L19.7624 54.6363L4.05692 45.5688C2.89832 44.8998 2.63412 43.2764 3.45302 41.858L24.9266 4.66465C25.7455 3.24626 27.2836 2.66334 28.4422 3.33226L44.1477 12.3998L42.6918 14.9214L32.5219 9.04978Z" stroke="white" stroke-miterlimit="10"/>
<path d="M30.9751 11.729L41.0163 17.5263" stroke="white" stroke-miterlimit="10"/>
<path d="M28.8823 15.3538L38.9235 21.1511" stroke="white" stroke-miterlimit="10"/>
<path d="M26.8805 18.8208L36.9217 24.6181" stroke="white" stroke-miterlimit="10"/>
<path d="M24.8788 22.2881L34.92 28.0854" stroke="white" stroke-miterlimit="10"/>
<path d="M22.786 25.9128L32.8272 31.7101" stroke="white" stroke-miterlimit="10"/>
<path d="M20.7842 29.3799L30.8254 35.1772" stroke="white" stroke-miterlimit="10"/>
<path d="M18.7825 32.8472L28.8237 38.6445" stroke="white" stroke-miterlimit="10"/>
<path d="M16.6897 36.4719L26.7309 42.2692" stroke="white" stroke-miterlimit="10"/>
<path d="M14.6879 39.9392L24.7291 45.7365" stroke="white" stroke-miterlimit="10"/>
<path d="M12.6862 43.4062L22.7274 49.2035" stroke="white" stroke-miterlimit="10"/>
</g>
<defs>
<clipPath id="clip0_667_234">
<rect width="22" height="50.5903" fill="white" transform="translate(26.1937 0.983398) rotate(30)"/>
</clipPath>
</defs>
</svg>
