<svg width="47" height="51" viewBox="0 0 47 51" fill="none" xmlns="http://www.w3.org/2000/svg">
<g clip-path="url(#clip0_667_251)">
<path d="M34.2919 41.3387L37.2949 44.4808C33.4729 47.7595 28.559 49.8087 23.3721 49.8087C17.6391 49.8087 12.3157 47.3497 8.35722 43.3879L11.9062 40.6557C12.3157 40.3825 12.0427 39.836 11.6332 39.836L5.62725 40.1092C2.76078 36.0109 1.1228 30.9562 1.1228 25.4917C1.1228 20.3005 2.62429 15.6557 5.08126 11.6939L11.3602 13.7431C11.7697 13.8797 12.1792 13.3333 11.9062 13.0601L8.08423 7.86879C12.0427 3.77043 17.5026 1.1748 23.5086 1.1748C31.6985 1.1748 38.9329 6.09284 42.7548 13.3333L38.5234 17.1584C38.2504 17.4316 38.3869 17.9781 38.9329 17.9781L44.5293 17.295C45.3483 19.8907 45.7578 22.6229 45.7578 25.4917C45.7578 31.6393 43.7103 37.2404 40.1614 41.612L34.7014 40.6557C34.2919 40.5191 34.0189 41.0655 34.2919 41.3387Z" stroke="white" stroke-miterlimit="10"/>
<path d="M16.1376 24.6721C18.6254 24.6721 20.6421 23.2042 20.6421 21.3934C20.6421 19.5827 18.6254 18.1147 16.1376 18.1147C13.6499 18.1147 11.6332 19.5827 11.6332 21.3934C11.6332 23.2042 13.6499 24.6721 16.1376 24.6721Z" stroke="white" stroke-miterlimit="10"/>
<path d="M31.4255 24.6721C33.9132 24.6721 35.9299 23.2042 35.9299 21.3934C35.9299 19.5827 33.9132 18.1147 31.4255 18.1147C28.9377 18.1147 26.921 19.5827 26.921 21.3934C26.921 23.2042 28.9377 24.6721 31.4255 24.6721Z" stroke="white" stroke-miterlimit="10"/>
<path d="M23.5086 38.0601C25.9963 38.0601 28.0131 36.5921 28.0131 34.7814C28.0131 32.9706 25.9963 31.5027 23.5086 31.5027C21.0209 31.5027 19.0042 32.9706 19.0042 34.7814C19.0042 36.5921 21.0209 38.0601 23.5086 38.0601Z" stroke="white" stroke-miterlimit="10"/>
</g>
<defs>
<clipPath id="clip0_667_251">
<rect width="46" height="50" fill="white" transform="translate(0.440308 0.491699)"/>
</clipPath>
</defs>
</svg>
