<svg width="52" height="55" viewBox="0 0 52 55" fill="none" xmlns="http://www.w3.org/2000/svg">
<g clip-path="url(#clip0_667_259)">
<path d="M37.6814 52.2726C41.2275 52.2726 44.1022 49.3747 44.1022 45.8C44.1022 42.2253 41.2275 39.3274 37.6814 39.3274C34.1352 39.3274 31.2605 42.2253 31.2605 45.8C31.2605 49.3747 34.1352 52.2726 37.6814 52.2726Z" stroke="white" stroke-miterlimit="10"/>
<path d="M37.6813 50.2383C40.113 50.2383 42.0842 48.2512 42.0842 45.7999C42.0842 43.3487 40.113 41.3616 37.6813 41.3616C35.2497 41.3616 33.2784 43.3487 33.2784 45.7999C33.2784 48.2512 35.2497 50.2383 37.6813 50.2383Z" stroke="white" stroke-miterlimit="10"/>
<path d="M7.22811 52.2726C10.7743 52.2726 13.649 49.3747 13.649 45.8C13.649 42.2253 10.7743 39.3274 7.22811 39.3274C3.68197 39.3274 0.807251 42.2253 0.807251 45.8C0.807251 49.3747 3.68197 52.2726 7.22811 52.2726Z" stroke="white" stroke-miterlimit="10"/>
<path d="M7.22807 50.2383C9.65972 50.2383 11.631 48.2512 11.631 45.7999C11.631 43.3487 9.65972 41.3616 7.22807 41.3616C4.79643 41.3616 2.8252 43.3487 2.8252 45.7999C2.8252 48.2512 4.79643 50.2383 7.22807 50.2383Z" stroke="white" stroke-miterlimit="10"/>
<path d="M35.4799 39.3273L26.1238 27.1218" stroke="white" stroke-miterlimit="10"/>
<path d="M22.4547 22.3136L6.12732 1.04651C5.94387 0.67665 5.39351 1.04651 5.57696 1.41638L18.0518 28.2314L19.1525 30.4506C19.1525 30.6356 19.336 30.6356 19.5194 30.6356H21.3539H23.3719C23.5554 30.6356 23.5554 30.6356 23.7388 30.8205L32.9115 41.7314" stroke="white" stroke-miterlimit="10"/>
<path d="M18.0519 28.4163L9.42957 39.6971" stroke="white" stroke-miterlimit="10"/>
<path d="M21.1705 30.8206L11.9978 41.3617" stroke="white" stroke-miterlimit="10"/>
<path d="M38.5986 2.34094L27.0411 27.4916C26.8576 27.6766 26.4907 27.8615 26.3073 27.4916L22.6382 22.6834C22.4547 22.4985 22.4547 22.3135 22.6382 22.1286L38.0483 1.97107C38.2317 1.60121 38.7821 1.97107 38.5986 2.34094Z" stroke="white" stroke-miterlimit="10"/>
<path d="M43.1849 49.1287C43.1849 49.1287 46.3036 50.0533 48.505 49.8684C50.7064 49.6835 51.9906 52.6424 49.7892 53.7519C47.5877 54.8615 41.9007 53.1972 41.1669 51.3478" stroke="white" stroke-miterlimit="10"/>
</g>
<defs>
<clipPath id="clip0_667_259">
<rect width="51" height="54" fill="white" transform="translate(0.440308 0.491699)"/>
</clipPath>
</defs>
</svg>
