<svg width="126" height="36" viewBox="0 0 126 36" fill="none" xmlns="http://www.w3.org/2000/svg">
<path d="M36.856 30.8295H35.4751V35.1764H34.8813V30.8295H33.5004V30.3173H36.8629L36.856 30.8295Z" fill="#EDEDED"/>
<path d="M42.4763 35.1764H41.7858L40.9573 33.7921C40.8577 33.6032 40.7216 33.4361 40.5568 33.3006C40.4378 33.2234 40.298 33.1847 40.1563 33.1899H39.5764V35.1764H39.024V30.3311H40.467C40.8467 30.3177 41.2195 30.435 41.5234 30.6634C41.6604 30.7832 41.7683 30.9327 41.8389 31.1007C41.9095 31.2686 41.9409 31.4505 41.9308 31.6324C41.9404 31.943 41.8456 32.2477 41.6615 32.4977C41.4733 32.7355 41.2184 32.9114 40.9296 33.003V33.003C41.024 33.0603 41.1119 33.1276 41.192 33.2037C41.2889 33.2981 41.3725 33.4052 41.4406 33.5221L42.4763 35.1764ZM39.5764 30.8295V32.6707H40.3428C40.5989 32.6726 40.846 32.576 41.0332 32.4008C41.1229 32.3096 41.1935 32.2014 41.2409 32.0826C41.2883 31.9637 41.3116 31.8366 41.3094 31.7086C41.3152 31.5929 41.296 31.4773 41.2531 31.3698C41.2102 31.2623 41.1446 31.1653 41.0608 31.0856C40.8564 30.9153 40.5941 30.831 40.3289 30.8503L39.5764 30.8295Z" fill="#EDEDED"/>
<path d="M43.9745 35.1765L45.8319 30.3312H46.4188L48.283 35.1765H47.6547L47.1644 33.8752H45.0931L44.6305 35.1765H43.9745ZM45.2381 33.363H46.9573L46.1771 31.231C46.1603 31.1882 46.1465 31.1442 46.1357 31.0995C46.1357 31.0441 46.1357 30.9818 46.1357 30.9057C46.1357 30.9749 46.1357 31.0303 46.1011 31.0857L46.0597 31.231L45.2381 33.363Z" fill="#EDEDED"/>
<path d="M50.9481 35.1765H50.382V30.3312H50.9481V35.1765Z" fill="#EDEDED"/>
<path d="M56.1265 35.1765H53.6064V30.3312H54.214V34.6712H56.1611L56.1265 35.1765Z" fill="#EDEDED"/>
<path d="M60.8216 35.1765H58.2531V30.3312H60.7111V30.8434H58.8193V32.4631H60.573V32.9684H58.8193V34.6712H60.8216V35.1765Z" fill="#EDEDED"/>
<path d="M66.573 35.1764H65.8826L65.054 33.7921C64.9545 33.6032 64.8184 33.4361 64.6536 33.3006C64.5346 33.2234 64.3948 33.1847 64.2531 33.1899H63.6939V35.1764H63.1277V30.3311H64.5707C64.9504 30.3177 65.3231 30.435 65.6271 30.6634C65.7682 30.7847 65.8792 30.9373 65.9511 31.1091C66.023 31.281 66.0539 31.4673 66.0414 31.6532C66.053 31.9629 65.9606 32.2676 65.779 32.5184C65.5908 32.7562 65.3359 32.9322 65.0471 33.0237C65.1415 33.0811 65.2294 33.1484 65.3095 33.2245C65.4064 33.3188 65.49 33.4259 65.5581 33.5429L66.573 35.1764ZM63.7077 30.8295V32.6707H64.4741C64.7307 32.6755 64.9789 32.5785 65.1645 32.4008C65.2564 32.3109 65.3289 32.2031 65.3776 32.0841C65.4263 31.965 65.4501 31.8372 65.4476 31.7086C65.4534 31.5929 65.4342 31.4773 65.3913 31.3698C65.3484 31.2623 65.2828 31.1653 65.199 31.0856C64.9946 30.9153 64.7323 30.831 64.4672 30.8503L63.7077 30.8295Z" fill="#EDEDED"/>
<path d="M71.9448 35.1764V30.3311H73.3257C73.6818 30.3096 74.034 30.4151 74.32 30.6287C74.4402 30.7254 74.5359 30.8491 74.5995 30.9898C74.6631 31.1305 74.6927 31.2843 74.6859 31.4386C74.6884 31.6872 74.6109 31.9299 74.465 32.1308C74.311 32.3374 74.096 32.49 73.8505 32.5669V32.5669C74.1483 32.5904 74.4277 32.7206 74.6376 32.9337C74.7394 33.0482 74.8174 33.1818 74.8672 33.3268C74.917 33.4717 74.9375 33.6252 74.9276 33.7782C74.9347 33.9692 74.8987 34.1593 74.8222 34.3343C74.7456 34.5093 74.6306 34.6647 74.4857 34.7888C74.1701 35.051 73.7699 35.1888 73.3603 35.1764H71.9448ZM72.511 30.8295V32.4008H73.091C73.3566 32.4157 73.6187 32.3346 73.8298 32.1723C73.9179 32.0924 73.9872 31.9937 74.0325 31.8836C74.0779 31.7734 74.0983 31.6545 74.0921 31.5355C74.0993 31.4342 74.0817 31.3327 74.0407 31.2398C73.9998 31.1469 73.9369 31.0655 73.8574 31.0025C73.6518 30.872 73.4096 30.8113 73.1669 30.8295H72.511ZM72.511 32.9061V34.6504H73.2843C73.562 34.668 73.8366 34.5844 74.0576 34.415C74.1501 34.3349 74.2231 34.2346 74.271 34.1218C74.3189 34.009 74.3403 33.8868 74.3338 33.7644C74.3427 33.6414 74.3209 33.518 74.2703 33.4056C74.2196 33.2932 74.1418 33.1952 74.0438 33.1206C73.7808 32.9596 73.4743 32.8846 73.1669 32.9061H72.511Z" fill="#EDEDED"/>
<path d="M76.7366 35.1765L78.5939 30.3312H79.1808L81.0519 35.1765H80.4512L79.961 33.8752H77.8896L77.427 35.1765H76.7366ZM78.0208 33.363H79.7608L78.9736 31.231C78.968 31.1874 78.968 31.1432 78.9736 31.0995C78.9736 31.0441 78.9736 30.9818 78.9322 30.9057C78.9367 30.9656 78.9367 31.0258 78.9322 31.0857C78.9322 31.141 78.9184 31.1895 78.8908 31.231L78.0208 33.363Z" fill="#EDEDED"/>
<path d="M86.5824 35.1765H85.8919L85.0565 33.7921C84.9611 33.6025 84.827 33.435 84.6629 33.3007C84.542 33.222 84.3996 33.1833 84.2556 33.1899H83.7032V35.1765H83.1301V30.3312H84.5939C84.9716 30.3166 85.3426 30.434 85.6434 30.6634C85.787 30.7829 85.9002 30.9351 85.9734 31.1072C86.0467 31.2794 86.0779 31.4666 86.0646 31.6533C86.0762 31.963 85.9838 32.2677 85.8022 32.5185C85.6124 32.7578 85.3548 32.9339 85.0634 33.0238V33.0238C85.161 33.0795 85.2514 33.1469 85.3327 33.2245C85.4291 33.3175 85.5106 33.425 85.5743 33.5429L86.5824 35.1765ZM83.717 30.8296V32.6708H84.4834C84.7401 32.6756 84.9882 32.5785 85.1739 32.4008C85.2657 32.311 85.3383 32.2032 85.3869 32.0841C85.4356 31.9651 85.4595 31.8373 85.457 31.7086C85.4628 31.593 85.4436 31.4774 85.4007 31.3699C85.3578 31.2623 85.2922 31.1654 85.2084 31.0857C85.0036 30.916 84.7415 30.8317 84.4765 30.8503L83.717 30.8296Z" fill="#EDEDED"/>
<path d="M88.6745 35.1765V30.3312H90.0554C90.4113 30.3109 90.7631 30.4162 91.0497 30.6288C91.169 30.7262 91.2642 30.8501 91.3277 30.9906C91.3912 31.1311 91.4213 31.2845 91.4156 31.4387C91.4148 31.6867 91.3376 31.9285 91.1946 32.1309C91.0391 32.3358 90.8246 32.488 90.5801 32.567V32.567C90.8764 32.589 91.1541 32.7196 91.3604 32.9338C91.4613 33.0435 91.5395 33.1722 91.5904 33.3124C91.6414 33.4526 91.6641 33.6016 91.6573 33.7506C91.6631 33.9421 91.6257 34.1324 91.548 34.3073C91.4703 34.4823 91.3543 34.6374 91.2085 34.7612C90.8938 35.0251 90.493 35.1631 90.083 35.1489L88.6745 35.1765ZM89.2407 30.8296V32.4009H89.8207C90.0843 32.4173 90.3448 32.336 90.5525 32.1724C90.6431 32.0941 90.7145 31.9959 90.7612 31.8855C90.8079 31.7751 90.8286 31.6554 90.8218 31.5356C90.829 31.4343 90.8113 31.3328 90.7704 31.2399C90.7295 31.147 90.6665 31.0656 90.587 31.0026C90.3814 30.872 90.1393 30.8114 89.8966 30.8296H89.2407ZM89.2407 32.9062V34.6505H90.0071C90.2957 34.6705 90.5814 34.5816 90.808 34.4013C90.8993 34.3202 90.9715 34.2197 91.0193 34.1072C91.067 33.9946 91.0892 33.8728 91.0842 33.7506C91.0972 33.6265 91.0765 33.5011 91.0242 33.3877C90.972 33.2744 90.8901 33.1774 90.7873 33.1069C90.5252 32.9437 90.218 32.8685 89.9104 32.8923L89.2407 32.9062Z" fill="#EDEDED"/>
<path d="M96.594 35.1765H94.0255V30.3312H96.4835V30.8434H94.5917V32.4631H96.3316V32.9684H94.5779V34.6712H96.5802L96.594 35.1765Z" fill="#EDEDED"/>
<path d="M102.345 35.1764H101.655L100.826 33.7921C100.727 33.6032 100.591 33.4361 100.426 33.3006C100.307 33.2234 100.167 33.1847 100.026 33.1899H99.4663V35.1764H98.9001V30.3311H100.343C100.723 30.3177 101.096 30.435 101.4 30.6634C101.545 30.7783 101.662 30.9258 101.742 31.094C101.821 31.2622 101.86 31.4465 101.855 31.6324C101.865 31.943 101.77 32.2477 101.586 32.4977C101.398 32.7355 101.143 32.9114 100.854 33.003V33.003C100.948 33.0603 101.036 33.1276 101.116 33.2037C101.213 33.2981 101.297 33.4052 101.365 33.5221L102.345 35.1764ZM99.4801 30.8295V32.6707H100.253C100.51 32.6733 100.757 32.5766 100.944 32.4008C101.033 32.3096 101.104 32.2014 101.152 32.0826C101.199 31.9637 101.222 31.8366 101.22 31.7086C101.226 31.5929 101.207 31.4773 101.164 31.3698C101.121 31.2623 101.055 31.1653 100.971 31.0856C100.767 30.9153 100.505 30.831 100.24 30.8503L99.4801 30.8295Z" fill="#EDEDED"/>
<path d="M104.016 34.8027L104.293 34.3736C104.477 34.4946 104.677 34.5901 104.886 34.6574C105.112 34.7154 105.344 34.7433 105.577 34.7404C105.823 34.7446 106.064 34.672 106.267 34.5328C106.363 34.4645 106.441 34.3727 106.491 34.266C106.542 34.1594 106.565 34.0415 106.557 33.9236C106.56 33.8171 106.541 33.7111 106.499 33.6131C106.457 33.5151 106.395 33.4274 106.316 33.356C106.074 33.1763 105.806 33.0362 105.522 32.9407C105.149 32.8272 104.804 32.6387 104.507 32.387C104.397 32.2821 104.312 32.1548 104.256 32.0139C104.2 31.873 104.175 31.7217 104.182 31.5702C104.175 31.3873 104.209 31.2052 104.282 31.0375C104.355 30.8697 104.465 30.7206 104.603 30.6011C104.922 30.3475 105.322 30.2173 105.729 30.2343C105.942 30.2329 106.155 30.2561 106.364 30.3035C106.585 30.3544 106.8 30.4287 107.006 30.525L106.792 30.9887C106.622 30.9019 106.441 30.839 106.253 30.8018C106.068 30.7587 105.878 30.7378 105.687 30.7396C105.44 30.7266 105.196 30.8 104.997 30.9472C104.914 31.0159 104.849 31.103 104.806 31.2016C104.762 31.3001 104.743 31.4073 104.748 31.5148C104.744 31.6118 104.763 31.7083 104.804 31.7963C104.845 31.8843 104.906 31.9611 104.983 32.0201C105.218 32.1911 105.479 32.322 105.756 32.4077C106.143 32.5282 106.501 32.7286 106.806 32.9961C106.915 33.114 106.999 33.2525 107.053 33.4035C107.108 33.5544 107.132 33.7148 107.123 33.8752C107.127 34.0602 107.09 34.2438 107.016 34.4135C106.942 34.5831 106.833 34.7347 106.695 34.8581C106.362 35.138 105.935 35.2792 105.501 35.2526C105.23 35.2549 104.961 35.22 104.7 35.1488C104.458 35.0644 104.228 34.948 104.016 34.8027Z" fill="#EDEDED"/>
<path d="M113.144 35.1764H112.571V32.9545H110.065V35.1764H109.499V30.3311H110.065V32.4631H112.571V30.3173H113.144V35.1764Z" fill="#EDEDED"/>
<path d="M117.736 35.2526C117.427 35.2648 117.119 35.2092 116.834 35.0896C116.549 34.97 116.294 34.7894 116.085 34.5604C115.659 34.0718 115.436 33.4372 115.464 32.7884C115.43 32.107 115.657 31.4383 116.099 30.9195C116.318 30.6851 116.585 30.5017 116.882 30.3821C117.179 30.2625 117.499 30.2097 117.818 30.2273C118.122 30.2169 118.424 30.2736 118.703 30.3932C118.982 30.5128 119.232 30.6925 119.434 30.9195C119.861 31.4078 120.081 32.0433 120.049 32.6915C120.087 33.3745 119.862 34.0461 119.42 34.5674C119.206 34.7974 118.944 34.9779 118.653 35.0963C118.362 35.2146 118.049 35.268 117.736 35.2526V35.2526ZM117.736 34.7404C117.97 34.7525 118.205 34.7122 118.422 34.6224C118.639 34.5327 118.834 34.3956 118.992 34.2213C119.323 33.8097 119.489 33.2885 119.455 32.7608C119.488 32.2268 119.328 31.6988 119.006 31.2725C118.854 31.0979 118.664 30.9599 118.451 30.8689C118.239 30.7778 118.008 30.736 117.777 30.7465C117.542 30.7403 117.308 30.7867 117.093 30.8825C116.878 30.9783 116.687 31.121 116.534 31.3002C116.227 31.7196 116.061 32.2265 116.061 32.7469C116.061 33.2673 116.227 33.7742 116.534 34.1936C116.68 34.3702 116.864 34.5113 117.072 34.606C117.28 34.7008 117.507 34.7467 117.736 34.7404V34.7404Z" fill="#EDEDED"/>
<path d="M122.969 33.3907V35.1765H122.403V30.3312H123.736C124.17 30.3025 124.598 30.4384 124.937 30.7119C125.084 30.8515 125.199 31.0219 125.273 31.2109C125.347 31.3999 125.378 31.6029 125.365 31.8055C125.372 32.0201 125.333 32.2336 125.251 32.4318C125.169 32.63 125.045 32.8083 124.889 32.9546C124.715 33.1106 124.512 33.2306 124.291 33.3078C124.071 33.385 123.838 33.4179 123.605 33.4045L122.969 33.3907ZM122.969 30.8295V32.9061H123.563C123.886 32.9267 124.205 32.8282 124.461 32.6292C124.567 32.5298 124.649 32.4081 124.703 32.2729C124.757 32.1377 124.78 31.9923 124.771 31.8471C124.781 31.7104 124.761 31.5731 124.712 31.4451C124.663 31.3171 124.587 31.2015 124.488 31.1064C124.242 30.923 123.938 30.8345 123.632 30.8572L122.969 30.8295Z" fill="#EDEDED"/>
<path d="M27.3904 21.7727C27.2979 22.2161 27.15 22.6462 26.9504 23.0527C26.6688 23.6253 26.3012 24.1514 25.8604 24.6127C25.2954 25.215 24.6761 25.764 24.0104 26.2527C23.1671 26.8624 22.258 27.3756 21.3004 27.7827C19.834 28.3721 18.2595 28.6447 16.6804 28.5827C15.2187 28.6338 13.7627 28.3751 12.408 27.8236C11.0534 27.2721 9.83074 26.4402 8.82036 25.3827C6.60703 23.0627 5.50036 19.8894 5.50036 15.8627V15.3727C5.50036 11.3727 6.59703 8.20273 8.79036 5.86273C9.80228 4.80724 11.0252 3.97677 12.3795 3.42542C13.7337 2.87406 15.189 2.61419 16.6504 2.66273C18.2292 2.60552 19.8027 2.87797 21.2704 3.46273C22.2261 3.87368 23.1347 4.38665 23.9804 4.99273C24.6479 5.47541 25.2675 6.02126 25.8304 6.62273C26.2686 7.08245 26.636 7.60484 26.9204 8.17273C27.1217 8.58208 27.2696 9.01564 27.3604 9.46273H27.5004C27.6966 8.77087 27.7577 8.0477 27.6804 7.33273C27.6863 6.11226 27.6094 4.8928 27.4504 3.68273C27.4146 3.5764 27.3711 3.47279 27.3204 3.37273L27.1004 3.15273C26.3398 2.57673 25.4832 2.13999 24.5704 1.86273C22.0684 1.05712 19.4479 0.681796 16.8204 0.752726C12.722 0.666158 8.7511 2.17989 5.75036 4.97273C4.24713 6.30184 3.04557 7.93711 2.22631 9.76879C1.40706 11.6005 0.989056 13.5862 1.00036 15.5927V15.6427C0.985929 17.6483 1.40257 19.6335 2.22208 21.464C3.04159 23.2946 4.24484 24.9276 5.75036 26.2527C8.74825 29.0501 12.721 30.5646 16.8204 30.4727C19.4412 30.5414 22.0548 30.1661 24.5504 29.3627C25.464 29.0921 26.3211 28.6585 27.0804 28.0827L27.3004 27.8527C27.3511 27.7527 27.3945 27.6491 27.4304 27.5427C27.5894 26.336 27.6662 25.1199 27.6604 23.9027C27.7452 23.1891 27.6909 22.4657 27.5004 21.7727H27.3904Z" fill="#F0B56F" stroke="#F0B56F" stroke-width="0.5" stroke-miterlimit="10"/>
<path d="M49.6903 10.3828C49.7888 10.1868 49.9296 10.0151 50.1026 9.88024C50.2755 9.74534 50.4763 9.65057 50.6903 9.60278V9.60278H45.6503C46.6503 9.75278 47.0703 10.5128 47.0703 11.8728V15.7328C47.1088 16.0124 47.0449 16.2966 46.8903 16.5328C46.6789 16.6082 46.4542 16.6388 46.2303 16.6228H37.6103C37.0803 16.6228 36.8103 16.3428 36.8103 15.7828V12.5328C36.7834 11.7954 36.92 11.0612 37.2103 10.3828C37.3046 10.1886 37.4451 10.0205 37.6194 9.89327C37.7938 9.766 37.9967 9.68343 38.2103 9.65278V9.60278H33.1603V9.65278C34.1603 9.82278 34.5903 10.5828 34.5903 11.9128V11.9628V23.4228C34.5903 24.7828 34.1203 25.5428 33.1703 25.6928C33.6103 25.6928 34.0403 25.6428 34.4403 25.6428H35.9703L38.1503 25.6928V25.6428C37.2303 25.4894 36.7703 24.7494 36.7703 23.4228V18.7528C36.7437 18.5203 36.7817 18.285 36.8803 18.0728C36.9503 17.9628 37.1803 17.9128 37.5703 17.9128H46.3203C46.6203 17.9128 46.8103 17.9728 46.9003 18.0928C47.0109 18.3121 47.056 18.5585 47.0303 18.8028V23.4228C47.0303 24.7828 46.5703 25.5428 45.6503 25.6928C46.1003 25.6928 46.5203 25.6428 46.9203 25.6428H48.5003L50.6803 25.6928C49.7603 25.5428 49.3003 24.7828 49.3003 23.4228V12.5328C49.2763 11.7966 49.4092 11.0637 49.6903 10.3828V10.3828Z" fill="#F0B56F" stroke="#F0B56F" stroke-width="0.5" stroke-miterlimit="10"/>
<path d="M69.2904 24.9127C68.8467 24.4646 68.5055 23.9255 68.2904 23.3327C67.1604 20.8727 66.0504 18.3327 64.9404 15.8027C63.8304 13.2727 62.7104 10.6127 61.5804 7.91272C60.6904 10.3127 59.5804 13.0227 58.3804 16.0427C58.1404 16.6127 57.8504 17.2727 57.5204 18.0427C57.1904 18.8127 56.7704 19.6827 56.2904 20.6927C55.8046 21.8604 55.2261 22.9873 54.5604 24.0627L53.8704 25.0627C53.766 25.2134 53.631 25.3402 53.4742 25.435C53.3174 25.5298 53.1423 25.5904 52.9604 25.6127V25.6627H56.0304L57.6304 21.2627L58.0304 20.2627L61.2304 12.4927L63.5604 18.1127C64.0804 19.3727 64.3504 20.0227 64.3804 20.1127L64.5004 20.2527L64.9004 21.2527L65.6304 23.1627C65.9104 23.9027 66.2504 24.7427 66.6304 25.6927H70.5004V25.5527C70.039 25.4742 69.615 25.2499 69.2904 24.9127V24.9127Z" fill="#F0B56F" stroke="#F0B56F" stroke-width="0.5" stroke-miterlimit="10"/>
<path d="M90.0404 9.16275H85.8104C86.8104 9.34275 87.2404 10.0928 87.2404 11.4228V20.5828C87.2404 20.7828 87.2404 20.8928 87.1504 20.8928C87.0604 20.8928 86.9804 20.8128 86.8404 20.6728L74.1304 9.07275C74.1487 9.40583 74.1487 9.73967 74.1304 10.0728V11.5128L74.0404 20.8428V23.0628C74.0404 24.4328 73.5704 25.1828 72.6204 25.3328H76.8404C75.9204 25.1828 75.4604 24.4328 75.4604 23.0628V21.1528L75.5004 13.4228C79.0204 16.7161 81.847 19.3828 83.9804 21.4228C86.1104 23.4228 87.5704 24.8528 88.3404 25.6228H88.6004C88.7377 25.4468 88.8021 25.2249 88.7804 25.0028C88.7804 24.4028 88.7304 23.7428 88.7104 23.0028C88.6904 22.2628 88.7104 21.4128 88.7104 20.4628V11.4628C88.6604 10.0928 89.1204 9.34275 90.0404 9.16275Z" fill="#F0B56F" stroke="#F0B56F" stroke-width="0.5" stroke-miterlimit="10"/>
<path d="M105.36 17.5627C106.28 17.7093 106.74 18.4493 106.74 19.7827L106.83 22.8527C106.83 23.2027 106.4 23.5627 105.54 23.9127C104.621 24.2786 103.64 24.462 102.65 24.4527C101.723 24.4914 100.798 24.3332 99.936 23.9885C99.0742 23.6438 98.2952 23.1203 97.6503 22.4527C96.3053 21.0102 95.5862 19.0939 95.6503 17.1227V16.9827C95.5335 15 96.2057 13.0515 97.5203 11.5627C98.0917 10.949 98.7884 10.4653 99.563 10.1443C100.338 9.82343 101.172 9.67281 102.01 9.70268C102.921 9.67422 103.827 9.83777 104.67 10.1827C105.668 10.5666 106.56 11.1838 107.27 11.9827C107.687 12.448 107.986 13.0072 108.14 13.6127V13.6127C108.23 13.6127 108.27 13.1627 108.27 12.3627C108.274 11.6938 108.23 11.0255 108.14 10.3627C108.129 10.3338 108.129 10.3015 108.14 10.2727C108.15 10.2435 108.15 10.2119 108.14 10.1827L108.01 10.0527C107.598 9.69992 107.123 9.42846 106.61 9.25268C105.177 8.77531 103.671 8.54866 102.16 8.58268C101.001 8.55619 99.8471 8.75898 98.766 9.17942C97.6849 9.59986 96.6974 10.2297 95.8603 11.0327C95.007 11.7824 94.3231 12.7052 93.8541 13.7397C93.3851 14.7742 93.1418 15.8968 93.1403 17.0327V17.2527C93.114 18.3842 93.3358 19.5077 93.7902 20.5442C94.2446 21.5808 94.9204 22.5053 95.7703 23.2527C97.5578 24.8191 99.8751 25.6452 102.25 25.5627C103.909 25.5767 105.555 25.2746 107.1 24.6727C108.37 24.1127 109.01 23.5827 109.01 23.0727V19.8227C109.01 18.4927 109.46 17.7527 110.38 17.6027L105.36 17.5627Z" fill="#F0B56F" stroke="#F0B56F" stroke-width="0.5" stroke-miterlimit="10"/>
</svg>
