<svg width="77" height="70" viewBox="0 0 77 70" fill="none" xmlns="http://www.w3.org/2000/svg">
<g clip-path="url(#clip0_667_216)">
<path d="M59.6152 18.8689C60.5501 18.0373 61.727 17.6313 63.0558 17.9874C63.7202 18.1654 64.0524 18.2544 64.6266 18.769" stroke="white" stroke-miterlimit="10"/>
<path d="M65.8084 22.3316C65.7182 22.6681 65.5379 23.3412 65.1155 23.5887L64.6932 23.8362L36.5369 58.4909C34.3966 61.1635 30.8041 61.2829 28.1751 59.1358C25.546 56.9886 25.5412 53.0199 28.0137 50.4363L59.6153 18.8688C60.5502 18.0373 61.7271 17.6313 63.0559 17.9873C63.7203 18.1653 64.0525 18.2543 64.6267 18.7689C65.5332 19.3724 66.1691 20.9855 65.8084 22.3316Z" stroke="white" stroke-miterlimit="10"/>
<path d="M60.7684 23.8665C61.5023 24.0632 62.2587 23.6199 62.4579 22.8765C62.6571 22.1331 62.2237 21.371 61.4898 21.1744C60.7559 20.9778 59.9995 21.421 59.8003 22.1644C59.6011 22.9078 60.0346 23.6699 60.7684 23.8665Z" stroke="white" stroke-miterlimit="10"/>
<path d="M52.9911 20.7021L51.1297 23.3514C51.1297 23.3514 35.3561 17.9179 29.4423 21.6466L11.7799 19.2098C11.7799 19.2098 8.79332 10.9374 15.3653 11.454C21.9372 11.9706 41.1606 15.5785 52.9911 20.7021Z" stroke="white" stroke-miterlimit="10"/>
<path d="M67.0634 26.0019L66.2412 27.6846C66.2412 27.6846 71.384 28.0889 72.7828 27.8493L72.892 26.4601L67.0634 26.0019Z" stroke="white" stroke-miterlimit="10"/>
</g>
<defs>
<clipPath id="clip0_667_216">
<rect width="65" height="54" fill="white" transform="translate(13.9762 0.508301) rotate(15)"/>
</clipPath>
</defs>
</svg>
