<svg width="49" height="50" viewBox="0 0 49 50" fill="none" xmlns="http://www.w3.org/2000/svg">
<g clip-path="url(#clip0_667_227)">
<path d="M48.1127 8.08164V22.9129C48.1127 22.9129 36.3138 39.698 2.25796 23.4458C1.54287 23.0905 1.09595 22.38 1.09595 21.5808V9.41379C1.09595 8.6145 1.54287 7.90402 2.25796 7.54878C36.3138 -8.70344 48.1127 8.08164 48.1127 8.08164Z" stroke="white" stroke-miterlimit="10"/>
<path d="M9.31946 26.5541V4.44043" stroke="white" stroke-miterlimit="10"/>
<path d="M33.7217 30.1955L30.5038 44.2274C30.1463 45.9148 28.2692 46.9806 26.3027 46.6253L17.9898 45.2044L16.6491 45.0267C15.4871 44.8491 14.772 43.8722 14.9507 42.8953L18.1686 29.3074" stroke="white" stroke-miterlimit="10"/>
<path d="M17.9898 45.2043L17.1854 48.3127C17.096 48.5791 17.2747 48.9344 17.5429 49.0232C19.2412 49.556 24.6044 50.7994 25.9451 46.6253" stroke="white" stroke-miterlimit="10"/>
<path d="M37.5652 22.2026C41.2677 22.2026 44.2691 19.2205 44.2691 15.5418C44.2691 11.8632 41.2677 8.8811 37.5652 8.8811C33.8628 8.8811 30.8613 11.8632 30.8613 15.5418C30.8613 19.2205 33.8628 22.2026 37.5652 22.2026Z" stroke="white" stroke-miterlimit="10"/>
</g>
<defs>
<clipPath id="clip0_667_227">
<rect width="48" height="50" fill="white" transform="translate(0.559692)"/>
</clipPath>
</defs>
</svg>
