<svg width="49" height="55" viewBox="0 0 49 55" fill="none" xmlns="http://www.w3.org/2000/svg">
<g clip-path="url(#clip0_667_273)">
<path d="M17.7554 43.1298C17.7554 45.1054 17.3171 47.081 16.2212 48.8371C13.591 53.4469 8.33075 55.4225 4.38555 53.2274C0.659521 51.0322 -0.217191 45.5444 2.41295 40.7152C4.82391 36.9835 9.20747 34.7883 12.9335 35.8859" stroke="white" stroke-miterlimit="10"/>
<path d="M14.0649 47.6935C15.8201 44.6488 15.2034 41.0013 12.6876 39.5465C10.1717 38.0917 6.70929 39.3805 4.95408 42.4252C3.19888 45.4698 3.81552 49.1173 6.3314 50.5721C8.84727 52.0269 12.3097 50.7381 14.0649 47.6935Z" stroke="white" stroke-miterlimit="10"/>
<path d="M17.7553 43.1298C17.7553 43.1298 21.7005 35.4469 26.0841 31.0567C30.4677 26.6664 39.454 13.7152 34.1937 2.08105L18.632 28.4225C18.632 28.4225 20.1663 36.9835 12.7142 35.8859" stroke="white" stroke-miterlimit="10"/>
<path d="M35.9471 35.8859C39.454 34.7883 43.8375 36.7639 46.2485 40.9346C48.8786 45.5444 48.0019 51.2517 44.2759 53.4468C40.5498 55.642 35.2896 53.6663 32.4403 49.0566C31.3444 47.081 30.906 45.1054 30.906 43.3493" stroke="white" stroke-miterlimit="10"/>
<path d="M42.6735 50.5839C45.1894 49.1291 45.806 45.4816 44.0508 42.4369C42.2956 39.3923 38.8332 38.1034 36.3174 39.5582C33.8015 41.013 33.1848 44.6606 34.94 47.7052C36.6953 50.7499 40.1576 52.0387 42.6735 50.5839Z" stroke="white" stroke-miterlimit="10"/>
<path d="M29.3718 27.325L30.0294 28.4225C30.0294 28.4225 28.4951 36.9835 35.9472 35.8859" stroke="white" stroke-miterlimit="10"/>
<path d="M30.906 43.1298C30.6869 42.9103 27.8375 37.4225 24.3307 33.0322" stroke="white" stroke-miterlimit="10"/>
<path d="M19.5088 27.3249C15.1253 21.3981 10.3034 11.3005 14.4677 2.30054L24.3308 18.9835" stroke="white" stroke-miterlimit="10"/>
</g>
<defs>
<clipPath id="clip0_667_273">
<rect width="48" height="54" fill="white" transform="translate(0.440308 0.983398)"/>
</clipPath>
</defs>
</svg>
